<svg width="32" height="32" xmlns="http://www.w3.org/2000/svg">

 <g>
  <title>background</title>
  <rect fill="none" id="canvas_background" height="402" width="582" y="-1" x="-1"/>
 </g>
 <g>
  <title>Layer 1</title>
  <path id="svg_1" fill-rule="evenodd" fill="#ffffff" d="m29,0l-22,0c-1.657,0 -3,1.342 -3,3l0,2l-1,0c-1.657,0 -3,1.342 -3,3l0,20c0,2.209 1.791,4 4,4l24,0c2.209,0 4,-1.791 4,-4l0,-25c0,-1.658 -1.344,-3 -3,-3zm1,28c0,1.102 -0.898,2 -2,2l-24,0c-1.103,0 -2,-0.898 -2,-2l0,-20c0,-0.552 0.448,-1 1,-1l1,0l0,20c0,0.553 0.447,1 1,1s1,-0.447 1,-1l0,-24c0,-0.552 0.448,-1 1,-1l22,0c0.551,0 1,0.448 1,1l0,25z" clip-rule="evenodd"/>
  <path id="svg_2" fill-rule="evenodd" fill="#ffffff" d="m19.498,13.005l8,0c0.277,0 0.5,-0.224 0.5,-0.5s-0.223,-0.5 -0.5,-0.5l-8,0c-0.275,0 -0.5,0.224 -0.5,0.5s0.225,0.5 0.5,0.5z" clip-rule="evenodd"/>
  <path id="svg_3" fill-rule="evenodd" fill="#ffffff" d="m19.498,10.005l8,0c0.277,0 0.5,-0.224 0.5,-0.5s-0.223,-0.5 -0.5,-0.5l-8,0c-0.275,0 -0.5,0.224 -0.5,0.5s0.225,0.5 0.5,0.5z" clip-rule="evenodd"/>
  <path id="svg_4" fill-rule="evenodd" fill="#ffffff" d="m19.498,7.005l8,0c0.277,0 0.5,-0.224 0.5,-0.5s-0.223,-0.5 -0.5,-0.5l-8,0c-0.275,0 -0.5,0.224 -0.5,0.5s0.225,0.5 0.5,0.5z" clip-rule="evenodd"/>
  <path id="svg_5" fill-rule="evenodd" fill="#ffffff" d="m16.5,27.004l-8,0c-0.276,0 -0.5,0.225 -0.5,0.5c0,0.277 0.224,0.5 0.5,0.5l8,0c0.275,0 0.5,-0.223 0.5,-0.5c0,-0.275 -0.224,-0.5 -0.5,-0.5z" clip-rule="evenodd"/>
  <path id="svg_6" fill-rule="evenodd" fill="#ffffff" d="m16.5,24.004l-8,0c-0.276,0 -0.5,0.225 -0.5,0.5c0,0.277 0.224,0.5 0.5,0.5l8,0c0.275,0 0.5,-0.223 0.5,-0.5c0,-0.275 -0.224,-0.5 -0.5,-0.5z" clip-rule="evenodd"/>
  <path id="svg_7" fill-rule="evenodd" fill="#ffffff" d="m16.5,21.004l-8,0c-0.276,0 -0.5,0.225 -0.5,0.5c0,0.277 0.224,0.5 0.5,0.5l8,0c0.275,0 0.5,-0.223 0.5,-0.5c0,-0.275 -0.224,-0.5 -0.5,-0.5z" clip-rule="evenodd"/>
  <path id="svg_8" fill-rule="evenodd" fill="#ffffff" d="m27.5,27.004l-8,0c-0.277,0 -0.5,0.225 -0.5,0.5c0,0.277 0.223,0.5 0.5,0.5l8,0c0.275,0 0.5,-0.223 0.5,-0.5c0,-0.275 -0.225,-0.5 -0.5,-0.5z" clip-rule="evenodd"/>
  <path id="svg_9" fill-rule="evenodd" fill="#ffffff" d="m27.5,24.004l-8,0c-0.277,0 -0.5,0.225 -0.5,0.5c0,0.277 0.223,0.5 0.5,0.5l8,0c0.275,0 0.5,-0.223 0.5,-0.5c0,-0.275 -0.225,-0.5 -0.5,-0.5z" clip-rule="evenodd"/>
  <path id="svg_10" fill-rule="evenodd" fill="#ffffff" d="m27.5,21.004l-8,0c-0.277,0 -0.5,0.225 -0.5,0.5c0,0.277 0.223,0.5 0.5,0.5l8,0c0.275,0 0.5,-0.223 0.5,-0.5c0,-0.275 -0.225,-0.5 -0.5,-0.5z" clip-rule="evenodd"/>
  <path id="svg_11" fill-rule="evenodd" fill="#ffffff" d="m27.5,15.004l-19,0c-0.276,0 -0.5,0.224 -0.5,0.5s0.224,0.5 0.5,0.5l19,0c0.275,0 0.5,-0.224 0.5,-0.5s-0.225,-0.5 -0.5,-0.5z" clip-rule="evenodd"/>
  <path id="svg_12" fill-rule="evenodd" fill="#ffffff" d="m27.5,18.004l-19,0c-0.276,0 -0.5,0.225 -0.5,0.5c0,0.277 0.224,0.5 0.5,0.5l19,0c0.275,0 0.5,-0.223 0.5,-0.5c0,-0.275 -0.225,-0.5 -0.5,-0.5z" clip-rule="evenodd"/>
  <path id="svg_13" fill-rule="evenodd" fill="#ffffff" d="m9,13l7,0c0.553,0 1,-0.447 1,-1l0,-6.996c0,-0.553 -0.447,-1 -1,-1l-7,0c-0.553,0 -1,0.447 -1,1l0,6.996c0,0.552 0.447,1 1,1zm1,-7l5,0l0,5l-5,0l0,-5z" clip-rule="evenodd"/>
 </g>
</svg>