<svg width="32" height="32" xmlns="http://www.w3.org/2000/svg">

 <g>
  <title>background</title>
  <rect fill="none" id="canvas_background" height="402" width="582" y="-1" x="-1"/>
 </g>
 <g>
  <title>Layer 1</title>
  <path id="cloud" fill-rule="evenodd" fill="#ffffff" d="m25.914,13.09785c-0.437,-4.563 -4.236,-8.143 -8.914,-8.143c-3.619,0 -6.717,2.148 -8.146,5.23c-0.43,-0.136 -0.878,-0.23 -1.353,-0.23c-2.485,0 -4.5,2.016 -4.5,4.5c0,0.494 0.099,0.961 0.246,1.404c-1.933,1.127 -3.246,3.195 -3.246,5.594c0,3.59 2.91,6.5 6.5,6.5l0,0.002l17.999,0l0,-0.002c4.143,0 7.5,-3.357 7.5,-7.5c0,-3.656 -2.621,-6.693 -6.086,-7.355zm-1.414,12.855l0,0.002l-17.999,0c-2.481,-0.002 -4.5,-2.02 -4.5,-4.502c0,-1.6 0.843,-3.045 2.254,-3.867c1.371,-0.787 1.465,-0.943 0.89,-2.357c-0.097,-0.291 -0.144,-0.544 -0.144,-0.773c0,-1.379 1.121,-2.5 2.5,-2.5c0,0 0.656,-0.047 1.353,0.23c1.147,0.457 1.272,0.02 1.814,-1.159c1.147,-2.473 3.632,-4.072 6.332,-4.072c3.6,0 6.576,2.723 6.924,6.334c0.123,1.432 0.123,1.432 1.615,1.773c2.586,0.494 4.461,2.762 4.461,5.391c0,3.033 -2.467,5.5 -5.5,5.5z" clip-rule="evenodd"/>
 </g>
</svg>