<svg viewBox="0 0 64 64" xmlns="http://www.w3.org/2000/svg" width="150" height="150">
<path d="M58.7051,20.438q.0145-.2022.0146-.4028a5.5933,5.5933,0,0,0-5.2456-5.5806A10.17,10.17,0,0,0,35.042,13.1875a8.0309,8.0309,0,0,0-.9019-.0527,8.1458,8.1458,0,0,0-6.312,2.9643,1,1,0,0,0,.8472,1.6328c.1055-.0078.2183-.0073.3247-.0068a13.0334,13.0334,0,0,1,11.8394,7.6431,1,1,0,0,0,1.1147.5659,10.0178,10.0178,0,0,1,9.626,3.271.9994.9994,0,0,0,.76.35h7.95a1,1,0,0,0,.8633-.4951A6.2019,6.2019,0,0,0,62,25.9351,6.2788,6.2788,0,0,0,58.7051,20.438Z" style="fill:#7cc9f2"/>
<path d="M55.9771,34.98A12.006,12.006,0,0,0,44,23.7251a12.1858,12.1858,0,0,0-1.6792.1162A15.0383,15.0383,0,0,0,29,15.7251c-.1543,0-.3208.001-.4272.01a14.9263,14.9263,0,0,0-13.7115,9.9907A8.01,8.01,0,0,0,7,33.7251a7.91,7.91,0,0,0,.0537.916A9.0644,9.0644,0,0,0,2,42.7251a8.8729,8.8729,0,0,0,1.2188,4.5078.9991.9991,0,0,0,.8613.4922H15.36a1,1,0,0,0,.9878-.8442,7.7477,7.7477,0,0,1,15.3046,0,1,1,0,0,0,.9878.8442h27.1a.9991.9991,0,0,0,.8194-.4268A7.942,7.942,0,0,0,62,42.7251,8.03,8.03,0,0,0,55.9771,34.98Z" style="fill:#9cd5f2"/>
<path d="M33.7368,47.61a10.2752,10.2752,0,0,0-.1089-1.0406,9.7478,9.7478,0,0,0-19.2563.0025,10.3531,10.3531,0,0,0-.1084,1.0381A7.9712,7.9712,0,0,0,9,55.105a1,1,0,0,0,1,1H38a1,1,0,0,0,1-1A7.9712,7.9712,0,0,0,33.7368,47.61Z" style="fill:#b2ebf2"/>
</svg>