<svg viewBox="0 0 48 48" xmlns="http://www.w3.org/2000/svg">
  <defs>
    <style>
      .cls-1{fill:#7c7d7d}.cls-2{fill:#c4455e}.cls-3{fill:#db5669}
    </style>
  </defs>
  <g data-name="Virus Corona" id="Virus_Corona">
    <path class="cls-1" d="M8.37 16.07c-.36 0-.16.06-4-2.12a1 1 0 011-1.73l3.48 2a1 1 0 01-.48 1.85zM4.9 35.92a1 1 0 01-.5-1.87l3.48-2a1 1 0 011 1.74C5.06 36 5.26 35.92 4.9 35.92zM23 46v-4a1 1 0 012 0v4a1 1 0 01-2 0zM39.63 16.07a1 1 0 01-.5-1.87l3.48-2a1 1 0 011 1.73c-3.82 2.2-3.61 2.14-3.98 2.14zM43.1 35.92c-.36 0-.16 0-4-2.12a1 1 0 011-1.74l3.48 2a1 1 0 01-.48 1.86zM23 6V2a1 1 0 012 0v4a1 1 0 01-2 0z"/>
    <path class="cls-2" d="M27 3.2a22.68 22.68 0 00-5.87 0 1 1 0 01-.26-2 23.43 23.43 0 016.26 0 1 1 0 01-.13 2z"/>
    <path class="cls-3" d="M42 24a18 18 0 01-18 18C6.92 42-.48 20.39 12.86 9.86 24.54.66 42 8.89 42 24z"/>
    <path d="M42 24a18 18 0 01-3.86 11.14A18 18 0 0127 39C11.89 39 3.66 21.54 12.86 9.86 24.54.66 42 8.89 42 24z" fill="#f26674"/>
    <path class="cls-2" d="M44.42 16.79c-1.29 0-.76-1.65-3.78-5.6A1 1 0 0142.23 10a23.81 23.81 0 013.11 5.44 1 1 0 01-.92 1.35z"/>
    <path class="cls-1" d="M32 12a1 1 0 01-.86-1.51l3.47-5.78a1 1 0 011.71 1C32.55 12 32.76 12 32 12z"/>
    <path class="cls-2" d="M40.64 36.81a21.36 21.36 0 002.85-5 1 1 0 011.85.76A23.81 23.81 0 0142.23 38a1 1 0 01-1.59-1.19z"/>
    <path class="cls-1" d="M35.47 43.78c-.77 0-.57 0-4.33-6.27a1 1 0 011.72-1l3.46 5.77a1 1 0 01-.85 1.5zM16 12c-.77 0-.57 0-4.32-6.26a1 1 0 011.71-1l3.47 5.78A1 1 0 0116 12zM12.53 43.78a1 1 0 01-.85-1.52l3.46-5.77a1 1 0 011.72 1c-3.78 6.31-3.57 6.29-4.33 6.29zM9 25H2a1 1 0 010-2h7a1 1 0 010 2zM46 25h-7a1 1 0 010-2h7a1 1 0 010 2z"/>
    <path class="cls-2" d="M25 21a6 6 0 11-9.12-5.12A6 6 0 0125 21z"/>
    <path class="cls-3" d="M24.12 24.12c-5.3 3.26-11.53-2.9-8.24-8.24 5.32-3.28 11.51 2.93 8.24 8.24z"/>
    <path class="cls-2" d="M33 30a3 3 0 11-3.87-2.87A3 3 0 0133 30z"/>
    <path class="cls-3" d="M32.87 30.87a3 3 0 01-3.74-3.74 3 3 0 013.74 3.74z"/>
    <path class="cls-2" d="M37.92 8c-.7 0-1.92-1.65-5.52-3.25a1 1 0 01.81-1.83 23.62 23.62 0 015.34 3.26A1 1 0 0137.92 8zM44.81 26.87a22.06 22.06 0 000-5.74 1 1 0 012-.26 23.43 23.43 0 010 6.26 1 1 0 01-2-.26zM9.45 6.18a23.51 23.51 0 015.34-3.26 1 1 0 01.81 1.83 21.31 21.31 0 00-4.89 3 1 1 0 01-1.26-1.57z"/>
    <path class="cls-3" d="M3.58 16.79a1 1 0 01-.92-1.38A23.81 23.81 0 015.77 10a1 1 0 011.59 1.22c-2.99 3.89-2.47 5.57-3.78 5.57z"/>
    <path class="cls-2" d="M1.21 27.13a23.43 23.43 0 010-6.26 1 1 0 012 .26 22.06 22.06 0 000 5.74 1 1 0 01-2 .26zM5.77 38a23.81 23.81 0 01-3.11-5.44 1 1 0 011.85-.76 21 21 0 002.85 5A1 1 0 015.77 38zM15.2 45.17c-.95 0-4.33-2.2-5.75-3.35a1 1 0 011.26-1.56 21.32 21.32 0 004.89 3 1 1 0 01-.4 1.91zM20.87 46.79a1 1 0 01.26-2 22.06 22.06 0 005.74 0 1 1 0 01.26 2 23.43 23.43 0 01-6.26 0zM32.8 45.17a1 1 0 01-.4-1.92 21.31 21.31 0 004.89-3 1 1 0 011.26 1.56c-1.02.83-4.73 3.36-5.75 3.36z"/>
  </g>
</svg>