<svg height="64" width="64" xmlns="http://www.w3.org/2000/svg">
  <circle cx="32" cy="32" fill="#4F5D73" r="32"/>
  <circle cx="22" cy="24" fill="#231F20" r="10" opacity=".2"/>
  <circle cx="22" cy="22" fill="#E0995E" r="10"/>
  <path d="M48.667 36c0-7.732-6.566-14-14.667-14-6.873 0-12.625 4.519-14.216 10.61-4.405.638-7.784 4.257-7.784 8.64 0 4.832 4.104 8.75 9.167 8.75h27.5C52.717 50 56 46.866 56 43s-3.283-7-7.333-7z" fill="#231F20" opacity=".2"/>
  <path d="M32 22a9.975 9.975 0 00-.438-2.928c-6.226.58-11.3 4.877-12.778 10.538a9.432 9.432 0 00-2.386.674A9.951 9.951 0 0022 32c5.523 0 10-4.477 10-10z" fill="#231F20" opacity=".2"/>
  <path d="M48.667 34c0-7.732-6.566-14-14.667-14-6.873 0-12.625 4.519-14.216 10.61-4.405.638-7.784 4.257-7.784 8.64 0 4.832 4.104 8.75 9.167 8.75h27.5C52.717 48 56 44.866 56 41s-3.283-7-7.333-7z" fill="#FFF"/>
</svg>