<svg viewBox="0 0 64 64" xmlns="http://www.w3.org/2000/svg">
  <path d="M31 52c-6.648-14.127-7.764-31.706-1.066-47H19a2.006 2.006 0 00-2 2v46a6 6 0 01-6 6h37.054C41.259 57.45 34.07 57.372 31 52z" fill="#dae9ef"/>
  <path d="M46.038 5h-16.1C23.236 20.294 24.352 37.873 31 52c3.07 5.372 10.259 5.45 17.054 7h4.457c-.404-17.94 1.765-37.256-6.473-54z" fill="#f1f9ff"/>
  <path d="M57 5H46.038c8.238 16.744 6.069 36.06 6.473 54H57a2.006 2.006 0 002-2V7a2.006 2.006 0 00-2-2z" fill="#f8fcff"/>
  <path d="M14.286 14H7a2.006 2.006 0 00-2 2v37a5.989 5.989 0 009.009 5.183A264.775 264.775 0 0014.286 14z" fill="#ccdee6"/>
  <path d="M14.286 14a264.775 264.775 0 01-.277 44.183A5.994 5.994 0 0017 53V14z" fill="#b4d3e0"/>
  <path d="M21 9v12h4.74a54.416 54.416 0 012.634-12z" fill="#fab06b"/>
  <path d="M28.374 9a54.416 54.416 0 00-2.634 12h25.31a61.532 61.532 0 00-3.256-12z" fill="#febd73"/>
  <path d="M55 9h-7.206a61.532 61.532 0 013.256 12H55z" fill="#fedc96"/>
  <path d="M52.483 41H41v14h11.457c-.024-4.618.055-9.306.026-14z" fill="#b4f5f0"/>
  <path d="M55 41h-2.517c.029 4.694-.05 9.382-.026 14H55z" fill="#d4fcf8"/>
  <path d="M25.435 26H25a1 1 0 000 2h.438q-.018-1-.003-2z" fill="#76838b"/>
  <path d="M25.435 26q-.016 1 0 2h26.511q-.09-1-.2-2z" fill="#a2adb3"/>
  <path d="M55 26h-3.254q.11 1 .2 2H55a1 1 0 000-2z" fill="#bec5cd"/>
  <path d="M25.51 30q.052 1 .139 2h26.584q-.054-1-.126-2z" fill="#a2adb3"/>
  <path d="M55 30h-2.893q.071 1 .126 2H55a1 1 0 000-2z" fill="#bec5cd"/>
  <path d="M21 30a1 1 0 000 2h4.649q-.086-1-.139-2z" fill="#76838b"/>
  <path d="M47 34H25.857q.121 1 .275 2H47a1 1 0 000-2z" fill="#a2adb3"/>
  <path d="M21 34a1 1 0 000 2h5.132q-.155-1-.275-2zM25 42a1 1 0 000 2h2.944c-.2-.663-.391-1.329-.567-2z" fill="#76838b"/>
  <path d="M38 43a1 1 0 00-1-1h-9.623c.176.671.367 1.337.567 2H37a1 1 0 001-1z" fill="#a2adb3"/>
  <path d="M21 46a1 1 0 000 2h8.308q-.378-.992-.722-2z" fill="#76838b"/>
  <path d="M38 47a1 1 0 00-1-1h-8.414q.344 1.008.722 2H37a1 1 0 001-1z" fill="#a2adb3"/>
  <path d="M21 50a1 1 0 000 2h10c-.31-.659-.6-1.327-.889-2z" fill="#76838b"/>
  <path d="M34 51a1 1 0 00-1-1h-2.889c.286.673.579 1.341.889 2h2a1 1 0 001-1zM51.71 34.29a1.047 1.047 0 00-1.42 0 1.032 1.032 0 00-.21.33.838.838 0 00-.08.38.99.99 0 00.29.71 1.032 1.032 0 00.33.21.942.942 0 00.76 0 1.169 1.169 0 00.33-.21.99.99 0 00.21-1.09 1.032 1.032 0 00-.21-.33zM37 52a1 1 0 00.38-.08 1.169 1.169 0 00.33-.21.99.99 0 00.21-1.09 1.155 1.155 0 00-.21-.33 1.047 1.047 0 00-1.42 0 1.032 1.032 0 00-.21.33.838.838 0 00-.08.38.99.99 0 001 1z" fill="#a2adb3"/>
  <path d="M17 53V7a2.006 2.006 0 012-2h38a2.006 2.006 0 012 2v50a2.006 2.006 0 01-2 2H11" fill="none" stroke="#4889a0" stroke-linecap="round" stroke-linejoin="round" stroke-width="2"/>
  <path d="M7 14h10v39a6 6 0 01-6 6h0a6 6 0 01-6-6V16a2 2 0 012-2zM21 9h34v12H21zM41 41h14v14H41zM25 27h30M21 31h34M21 35h26M25 43h12M21 47h16M21 51h12M51 35h0M37 51h0" fill="none" stroke="#4889a0" stroke-linecap="round" stroke-linejoin="round" stroke-width="2"/>
</svg>